# xmcd
#
# Track frame offsets:
#	150
#	17607
#	34181
#	53344
#	64565
#	82221
#	97721
#	114959
#	138881
#	156489
#	173495
#	191220
#
# Disc length: 2774 seconds
#
# Revision: 1
# Processed by: cddbd v1.5.2PL0 Copyright (c) Steve Scherf et al.
# Submitted via: EasyCDDAExtractor 12.0.1.1
#
DISCID=8d0ad40c
DTITLE=Bee Gees - Trafalgar
DYEAR=1971
DGENRE=Classic Rock
TTITLE0=How Can You Mend A Broken Heart
TTITLE1=Israel
TTITLE2=The Greatest Man In The World
TTITLE3=Its Just The Way
TTITLE4=Remembering
TTITLE5=Somebody Stop The Music
TTITLE6=Trafalgar
TTITLE7=Dont Wanna Live Inside Myself
TTITLE8=When Do I
TTITLE9=Dearest
TTITLE10=Lion In Winter
TTITLE11=Walking Back To Waterloo
EXTD=
EXTT0=
EXTT1=
EXTT2=
EXTT3=
EXTT4=
EXTT5=
EXTT6=
EXTT7=
EXTT8=
EXTT9=
EXTT10=
EXTT11=
PLAYORDER=
